<svg xmlns="http://www.w3.org/2000/svg" viewBox="0 0 800 500" role="img" aria-labelledby="title desc">
<title>AI network lightbulb illustration</title><desc>A glowing lightbulb connected to a network of data and technology nodes.</desc>
<defs><radialGradient id="bg"><stop offset="0" stop-color="#15314a"/><stop offset="1" stop-color="#07101d"/></radialGradient><radialGradient id="glow"><stop offset="0" stop-color="#70e0b1" stop-opacity=".8"/><stop offset="1" stop-color="#70e0b1" stop-opacity="0"/></radialGradient></defs>
<rect width="800" height="500" rx="32" fill="url(#bg)"/>
<circle cx="400" cy="235" r="190" fill="url(#glow)" opacity=".28"/>
<g fill="none" stroke="#4e7890" stroke-width="2" opacity=".75">
<path d="M400 235L170 110L90 240L190 390L400 235L610 120L710 270L610 390L400 235"/>
<path d="M170 110L320 80L400 235L520 70L610 120"/><path d="M90 240L280 300L190 390"/><path d="M520 70L710 270"/>
</g>
<g fill="#0b1827" stroke="#70e0b1" stroke-width="3"><circle cx="170" cy="110" r="10"/><circle cx="90" cy="240" r="10"/><circle cx="190" cy="390" r="10"/><circle cx="610" cy="120" r="10"/><circle cx="710" cy="270" r="10"/><circle cx="610" cy="390" r="10"/><circle cx="320" cy="80" r="9"/><circle cx="520" cy="70" r="9"/><circle cx="280" cy="300" r="9"/></g>
<g transform="translate(400 230)"><path d="M-70-18c0-55 38-88 70-88s70 33 70 88c0 29-13 45-29 61-11 11-16 22-17 39h-48c-1-17-6-28-17-39-16-16-29-32-29-61z" fill="#ffd96a" stroke="#fff2a8" stroke-width="5"/><path d="M-35 85h70M-28 102h56" stroke="#70e0b1" stroke-width="7" stroke-linecap="round"/><path d="M0-83v24M-46-62l16 17M46-62L30-45" stroke="#fff5b7" stroke-width="5" stroke-linecap="round"/></g>
<g font-family="system-ui,Segoe UI,sans-serif" fill="#dbe8f5"><text x="48" y="55" font-size="17" font-weight="700" letter-spacing="3">LEARNING SIGNAL</text><text x="48" y="455" font-size="18" fill="#9eabc0">AI · DATA · NETWORKS · SYSTEMS</text></g>
</svg>